<mxfile host="app.diagrams.net" agent="Mozilla/5.0 (Windows NT 10.0; Win64; x64) AppleWebKit/537.36 (KHTML, like Gecko) Chrome/129.0.0.0 Safari/537.36 Edg/129.0.0.0" version="24.7.17">
  <diagram name="第 1 页" id="Ni90BN1wA_N-kfd-1URX">
    <mxGraphModel dx="3565" dy="1575" grid="1" gridSize="10" guides="1" tooltips="1" connect="1" arrows="1" fold="1" page="0" pageScale="1" pageWidth="3300" pageHeight="2339" math="0" shadow="0">
      <root>
        <mxCell id="0" />
        <mxCell id="1" parent="0" />
        <mxCell id="qYlMRX3e8qcYRXx63u1V-75" value="" style="rounded=0;whiteSpace=wrap;html=1;fontFamily=Architects Daughter;fontSource=https%3A%2F%2Ffonts.googleapis.com%2Fcss%3Ffamily%3DArchitects%2BDaughter;fillColor=none;strokeWidth=1;strokeColor=#808080;" vertex="1" parent="1">
          <mxGeometry x="-1600" y="-630" width="860" height="210" as="geometry" />
        </mxCell>
        <mxCell id="qYlMRX3e8qcYRXx63u1V-27" value="" style="rounded=0;whiteSpace=wrap;html=1;fontFamily=Architects Daughter;fontSource=https%3A%2F%2Ffonts.googleapis.com%2Fcss%3Ffamily%3DArchitects%2BDaughter;fillColor=none;strokeWidth=1;strokeColor=#808080;" vertex="1" parent="1">
          <mxGeometry x="-1600" y="-780" width="860" height="110" as="geometry" />
        </mxCell>
        <mxCell id="qYlMRX3e8qcYRXx63u1V-25" value="" style="rounded=0;whiteSpace=wrap;html=1;fontFamily=Architects Daughter;fontSource=https%3A%2F%2Ffonts.googleapis.com%2Fcss%3Ffamily%3DArchitects%2BDaughter;fillColor=none;strokeWidth=1;strokeColor=#808080;" vertex="1" parent="1">
          <mxGeometry x="-1600" y="-380" width="860" height="210" as="geometry" />
        </mxCell>
        <mxCell id="qYlMRX3e8qcYRXx63u1V-7" value="" style="rounded=0;whiteSpace=wrap;html=1;fontFamily=宋体;fillColor=#d5e8d4;strokeColor=#82b366;" vertex="1" parent="1">
          <mxGeometry x="-1010" y="-370" width="250" height="160" as="geometry" />
        </mxCell>
        <mxCell id="qYlMRX3e8qcYRXx63u1V-12" value="" style="edgeStyle=orthogonalEdgeStyle;orthogonalLoop=1;jettySize=auto;html=1;rounded=0;fontFamily=Architects Daughter;fontSource=https%3A%2F%2Ffonts.googleapis.com%2Fcss%3Ffamily%3DArchitects%2BDaughter;fontSize=16;startSize=14;endArrow=blockThin;endSize=10;sourcePerimeterSpacing=8;targetPerimeterSpacing=8;endFill=1;exitX=0.5;exitY=1;exitDx=0;exitDy=0;dashed=1;startArrow=oval;startFill=0;" edge="1" parent="1" source="qYlMRX3e8qcYRXx63u1V-18">
          <mxGeometry width="140" relative="1" as="geometry">
            <mxPoint x="-1465" y="-150" as="sourcePoint" />
            <mxPoint x="-885" y="-210" as="targetPoint" />
            <Array as="points">
              <mxPoint x="-1465" y="-180" />
              <mxPoint x="-885" y="-180" />
            </Array>
          </mxGeometry>
        </mxCell>
        <mxCell id="qYlMRX3e8qcYRXx63u1V-13" value="" style="edgeStyle=orthogonalEdgeStyle;orthogonalLoop=1;jettySize=auto;html=1;rounded=0;fontFamily=Architects Daughter;fontSource=https%3A%2F%2Ffonts.googleapis.com%2Fcss%3Ffamily%3DArchitects%2BDaughter;fontSize=16;startSize=14;endArrow=blockThin;endSize=10;sourcePerimeterSpacing=8;targetPerimeterSpacing=8;endFill=1;exitX=0.5;exitY=1;exitDx=0;exitDy=0;entryX=0.5;entryY=1;entryDx=0;entryDy=0;dashed=1;startArrow=oval;startFill=0;" edge="1" parent="1" source="qYlMRX3e8qcYRXx63u1V-17" target="qYlMRX3e8qcYRXx63u1V-7">
          <mxGeometry width="140" relative="1" as="geometry">
            <mxPoint x="-1175" y="-320" as="sourcePoint" />
            <mxPoint x="-864" y="-310" as="targetPoint" />
            <Array as="points">
              <mxPoint x="-1175" y="-180" />
              <mxPoint x="-885" y="-180" />
            </Array>
          </mxGeometry>
        </mxCell>
        <mxCell id="qYlMRX3e8qcYRXx63u1V-14" value="&lt;font style=&quot;font-size: 19px;&quot; face=&quot;宋体&quot;&gt;数据加工、定期更新&lt;/font&gt;" style="text;strokeColor=none;fillColor=none;html=1;align=center;verticalAlign=middle;whiteSpace=wrap;rounded=0;fontSize=19;fontFamily=Architects Daughter;fontSource=https%3A%2F%2Ffonts.googleapis.com%2Fcss%3Ffamily%3DArchitects%2BDaughter;fontStyle=2" vertex="1" parent="1">
          <mxGeometry x="-1100" y="-210" width="200" height="30" as="geometry" />
        </mxCell>
        <mxCell id="qYlMRX3e8qcYRXx63u1V-16" value="&lt;font style=&quot;font-size: 20px;&quot;&gt;路网匹配服务API&lt;/font&gt;" style="rounded=0;whiteSpace=wrap;html=1;fontFamily=宋体;fillColor=#fff2cc;strokeColor=#d6b656;" vertex="1" parent="1">
          <mxGeometry x="-1510" y="-760" width="310" height="70" as="geometry" />
        </mxCell>
        <mxCell id="qYlMRX3e8qcYRXx63u1V-17" value="" style="rounded=0;whiteSpace=wrap;html=1;fontFamily=宋体;fillColor=#dae8fc;strokeColor=#6c8ebf;" vertex="1" parent="1">
          <mxGeometry x="-1300" y="-370" width="250" height="160" as="geometry" />
        </mxCell>
        <mxCell id="qYlMRX3e8qcYRXx63u1V-18" value="" style="rounded=0;whiteSpace=wrap;html=1;fontFamily=宋体;fillColor=#dae8fc;strokeColor=#6c8ebf;" vertex="1" parent="1">
          <mxGeometry x="-1590" y="-370" width="250" height="160" as="geometry" />
        </mxCell>
        <mxCell id="qYlMRX3e8qcYRXx63u1V-19" value="&lt;font style=&quot;font-size: 20px;&quot;&gt;坡度匹配服务API&lt;/font&gt;" style="rounded=0;whiteSpace=wrap;html=1;fontFamily=宋体;fillColor=#fff2cc;strokeColor=#d6b656;" vertex="1" parent="1">
          <mxGeometry x="-1140" y="-760" width="290" height="70" as="geometry" />
        </mxCell>
        <mxCell id="qYlMRX3e8qcYRXx63u1V-26" value="&lt;b&gt;&lt;font style=&quot;font-size: 22px;&quot; face=&quot;宋体&quot;&gt;数据层&lt;/font&gt;&lt;/b&gt;" style="text;strokeColor=none;fillColor=none;html=1;align=center;verticalAlign=middle;whiteSpace=wrap;rounded=0;fontSize=20;fontFamily=Architects Daughter;fontSource=https%3A%2F%2Ffonts.googleapis.com%2Fcss%3Ffamily%3DArchitects%2BDaughter;" vertex="1" parent="1">
          <mxGeometry x="-1690" y="-290" width="70" height="30" as="geometry" />
        </mxCell>
        <mxCell id="qYlMRX3e8qcYRXx63u1V-28" value="&lt;b&gt;&lt;font style=&quot;font-size: 22px;&quot; face=&quot;宋体&quot;&gt;应用层&lt;/font&gt;&lt;/b&gt;" style="text;strokeColor=none;fillColor=none;html=1;align=center;verticalAlign=middle;whiteSpace=wrap;rounded=0;fontSize=20;fontFamily=Architects Daughter;fontSource=https%3A%2F%2Ffonts.googleapis.com%2Fcss%3Ffamily%3DArchitects%2BDaughter;" vertex="1" parent="1">
          <mxGeometry x="-1690" y="-740" width="70" height="30" as="geometry" />
        </mxCell>
        <mxCell id="qYlMRX3e8qcYRXx63u1V-31" value="" style="edgeStyle=none;orthogonalLoop=1;jettySize=auto;html=1;rounded=0;fontFamily=Architects Daughter;fontSource=https%3A%2F%2Ffonts.googleapis.com%2Fcss%3Ffamily%3DArchitects%2BDaughter;fontSize=16;startSize=14;endArrow=blockThin;endSize=10;sourcePerimeterSpacing=8;targetPerimeterSpacing=8;curved=1;exitX=1;exitY=0.5;exitDx=0;exitDy=0;entryX=0;entryY=0.5;entryDx=0;entryDy=0;dashed=1;endFill=1;" edge="1" parent="1" source="qYlMRX3e8qcYRXx63u1V-16" target="qYlMRX3e8qcYRXx63u1V-19">
          <mxGeometry width="140" relative="1" as="geometry">
            <mxPoint x="-1200" y="-620" as="sourcePoint" />
            <mxPoint x="-1060" y="-620" as="targetPoint" />
            <Array as="points" />
          </mxGeometry>
        </mxCell>
        <mxCell id="qYlMRX3e8qcYRXx63u1V-32" value="&lt;font face=&quot;宋体&quot;&gt;支持&lt;/font&gt;" style="text;strokeColor=none;fillColor=none;html=1;align=center;verticalAlign=middle;whiteSpace=wrap;rounded=0;fontSize=20;fontFamily=Architects Daughter;fontSource=https%3A%2F%2Ffonts.googleapis.com%2Fcss%3Ffamily%3DArchitects%2BDaughter;" vertex="1" parent="1">
          <mxGeometry x="-1200" y="-760" width="50" height="30" as="geometry" />
        </mxCell>
        <mxCell id="qYlMRX3e8qcYRXx63u1V-36" value="路网地图数据" style="text;strokeColor=none;fillColor=none;html=1;align=center;verticalAlign=middle;whiteSpace=wrap;rounded=0;fontSize=20;fontFamily=宋体;" vertex="1" parent="1">
          <mxGeometry x="-1530" y="-370" width="130" height="30" as="geometry" />
        </mxCell>
        <mxCell id="qYlMRX3e8qcYRXx63u1V-38" value="存量车联网数据" style="text;strokeColor=none;fillColor=none;html=1;align=center;verticalAlign=middle;whiteSpace=wrap;rounded=0;fontSize=20;fontFamily=宋体;" vertex="1" parent="1">
          <mxGeometry x="-1255" y="-370" width="160" height="30" as="geometry" />
        </mxCell>
        <mxCell id="qYlMRX3e8qcYRXx63u1V-39" value="&lt;span style=&quot;font-family: 宋体;&quot;&gt;全国热线坡度地图数据&lt;/span&gt;" style="text;strokeColor=none;fillColor=none;html=1;align=center;verticalAlign=middle;whiteSpace=wrap;rounded=0;fontSize=20;fontFamily=Architects Daughter;fontSource=https%3A%2F%2Ffonts.googleapis.com%2Fcss%3Ffamily%3DArchitects%2BDaughter;" vertex="1" parent="1">
          <mxGeometry x="-995" y="-370" width="220" height="30" as="geometry" />
        </mxCell>
        <mxCell id="qYlMRX3e8qcYRXx63u1V-40" value="&lt;span style=&quot;font-size: 17px;&quot;&gt;静态信息&lt;/span&gt;" style="rounded=0;whiteSpace=wrap;html=1;fontFamily=宋体;fillColor=#e1d5e7;strokeColor=#9673a6;" vertex="1" parent="1">
          <mxGeometry x="-1290" y="-330" width="110" height="30" as="geometry" />
        </mxCell>
        <mxCell id="qYlMRX3e8qcYRXx63u1V-43" value="&lt;font style=&quot;font-size: 17px;&quot;&gt;扭矩&lt;/font&gt;" style="rounded=0;whiteSpace=wrap;html=1;fontFamily=宋体;fillColor=#e1d5e7;strokeColor=#9673a6;" vertex="1" parent="1">
          <mxGeometry x="-1170" y="-330" width="110" height="30" as="geometry" />
        </mxCell>
        <mxCell id="qYlMRX3e8qcYRXx63u1V-44" value="&lt;font style=&quot;font-size: 17px;&quot;&gt;发动机转速&lt;/font&gt;" style="rounded=0;whiteSpace=wrap;html=1;fontFamily=宋体;fillColor=#e1d5e7;strokeColor=#9673a6;" vertex="1" parent="1">
          <mxGeometry x="-1290" y="-290" width="110" height="30" as="geometry" />
        </mxCell>
        <mxCell id="qYlMRX3e8qcYRXx63u1V-45" value="&lt;font style=&quot;font-size: 17px;&quot;&gt;水温&lt;/font&gt;" style="rounded=0;whiteSpace=wrap;html=1;fontFamily=宋体;fillColor=#e1d5e7;strokeColor=#9673a6;" vertex="1" parent="1">
          <mxGeometry x="-1170" y="-290" width="110" height="30" as="geometry" />
        </mxCell>
        <mxCell id="qYlMRX3e8qcYRXx63u1V-46" value="&lt;span style=&quot;font-size: 17px;&quot;&gt;车速&lt;/span&gt;" style="rounded=0;whiteSpace=wrap;html=1;fontFamily=宋体;fillColor=#e1d5e7;strokeColor=#9673a6;" vertex="1" parent="1">
          <mxGeometry x="-1290" y="-250" width="110" height="30" as="geometry" />
        </mxCell>
        <mxCell id="qYlMRX3e8qcYRXx63u1V-47" value="&lt;span style=&quot;font-size: 17px;&quot;&gt;...&lt;/span&gt;" style="rounded=0;whiteSpace=wrap;html=1;fontFamily=宋体;fillColor=#e1d5e7;strokeColor=#9673a6;" vertex="1" parent="1">
          <mxGeometry x="-1170" y="-250" width="110" height="30" as="geometry" />
        </mxCell>
        <mxCell id="qYlMRX3e8qcYRXx63u1V-48" value="&lt;span style=&quot;font-size: 17px;&quot;&gt;编号&lt;/span&gt;" style="rounded=0;whiteSpace=wrap;html=1;fontFamily=宋体;fillColor=#e1d5e7;strokeColor=#9673a6;" vertex="1" parent="1">
          <mxGeometry x="-1580" y="-330" width="110" height="30" as="geometry" />
        </mxCell>
        <mxCell id="qYlMRX3e8qcYRXx63u1V-49" value="&lt;span style=&quot;font-size: 17px;&quot;&gt;类型&lt;/span&gt;" style="rounded=0;whiteSpace=wrap;html=1;fontFamily=宋体;fillColor=#e1d5e7;strokeColor=#9673a6;" vertex="1" parent="1">
          <mxGeometry x="-1460" y="-330" width="110" height="30" as="geometry" />
        </mxCell>
        <mxCell id="qYlMRX3e8qcYRXx63u1V-50" value="&lt;span style=&quot;font-size: 17px;&quot;&gt;名称&lt;/span&gt;" style="rounded=0;whiteSpace=wrap;html=1;fontFamily=宋体;fillColor=#e1d5e7;strokeColor=#9673a6;" vertex="1" parent="1">
          <mxGeometry x="-1580" y="-290" width="110" height="30" as="geometry" />
        </mxCell>
        <mxCell id="qYlMRX3e8qcYRXx63u1V-51" value="&lt;span style=&quot;font-size: 17px;&quot;&gt;方向&lt;/span&gt;" style="rounded=0;whiteSpace=wrap;html=1;fontFamily=宋体;fillColor=#e1d5e7;strokeColor=#9673a6;" vertex="1" parent="1">
          <mxGeometry x="-1460" y="-290" width="110" height="30" as="geometry" />
        </mxCell>
        <mxCell id="qYlMRX3e8qcYRXx63u1V-52" value="&lt;span style=&quot;font-size: 17px;&quot;&gt;矢量&lt;/span&gt;" style="rounded=0;whiteSpace=wrap;html=1;fontFamily=宋体;fillColor=#e1d5e7;strokeColor=#9673a6;" vertex="1" parent="1">
          <mxGeometry x="-1580" y="-250" width="110" height="30" as="geometry" />
        </mxCell>
        <mxCell id="qYlMRX3e8qcYRXx63u1V-53" value="&lt;span style=&quot;font-size: 17px;&quot;&gt;...&lt;/span&gt;" style="rounded=0;whiteSpace=wrap;html=1;fontFamily=宋体;fillColor=#e1d5e7;strokeColor=#9673a6;" vertex="1" parent="1">
          <mxGeometry x="-1460" y="-250" width="110" height="30" as="geometry" />
        </mxCell>
        <mxCell id="qYlMRX3e8qcYRXx63u1V-54" value="&lt;span style=&quot;font-size: 17px;&quot;&gt;道路编号&lt;/span&gt;" style="rounded=0;whiteSpace=wrap;html=1;fontFamily=宋体;fillColor=#e1d5e7;strokeColor=#9673a6;" vertex="1" parent="1">
          <mxGeometry x="-1000" y="-330" width="110" height="30" as="geometry" />
        </mxCell>
        <mxCell id="qYlMRX3e8qcYRXx63u1V-55" value="&lt;span style=&quot;font-size: 17px;&quot;&gt;节点编号&lt;/span&gt;" style="rounded=0;whiteSpace=wrap;html=1;fontFamily=宋体;fillColor=#e1d5e7;strokeColor=#9673a6;" vertex="1" parent="1">
          <mxGeometry x="-880" y="-330" width="110" height="30" as="geometry" />
        </mxCell>
        <mxCell id="qYlMRX3e8qcYRXx63u1V-56" value="&lt;span style=&quot;font-size: 17px;&quot;&gt;矢量&lt;/span&gt;" style="rounded=0;whiteSpace=wrap;html=1;fontFamily=宋体;fillColor=#e1d5e7;strokeColor=#9673a6;" vertex="1" parent="1">
          <mxGeometry x="-1000" y="-290" width="110" height="30" as="geometry" />
        </mxCell>
        <mxCell id="qYlMRX3e8qcYRXx63u1V-57" value="&lt;span style=&quot;font-size: 17px;&quot;&gt;坡度&lt;/span&gt;" style="rounded=0;whiteSpace=wrap;html=1;fontFamily=宋体;fillColor=#e1d5e7;strokeColor=#9673a6;" vertex="1" parent="1">
          <mxGeometry x="-1000" y="-250" width="110" height="30" as="geometry" />
        </mxCell>
        <mxCell id="qYlMRX3e8qcYRXx63u1V-58" value="&lt;span style=&quot;font-size: 17px;&quot;&gt;距离&lt;/span&gt;" style="rounded=0;whiteSpace=wrap;html=1;fontFamily=宋体;fillColor=#e1d5e7;strokeColor=#9673a6;" vertex="1" parent="1">
          <mxGeometry x="-880" y="-290" width="110" height="30" as="geometry" />
        </mxCell>
        <mxCell id="qYlMRX3e8qcYRXx63u1V-60" value="&lt;span style=&quot;font-size: 17px;&quot;&gt;...&lt;/span&gt;" style="rounded=0;whiteSpace=wrap;html=1;fontFamily=宋体;fillColor=#e1d5e7;strokeColor=#9673a6;" vertex="1" parent="1">
          <mxGeometry x="-880" y="-250" width="110" height="30" as="geometry" />
        </mxCell>
        <mxCell id="qYlMRX3e8qcYRXx63u1V-62" value="" style="rounded=0;whiteSpace=wrap;html=1;fontFamily=宋体;fillColor=#f8cecc;strokeColor=#b85450;" vertex="1" parent="1">
          <mxGeometry x="-1570" y="-497.5" width="505" height="70" as="geometry" />
        </mxCell>
        <mxCell id="qYlMRX3e8qcYRXx63u1V-63" value="" style="rounded=0;whiteSpace=wrap;html=1;fontFamily=Times New Roman;fillColor=#f8cecc;strokeColor=#b85450;" vertex="1" parent="1">
          <mxGeometry x="-995" y="-500" width="225" height="75" as="geometry" />
        </mxCell>
        <mxCell id="qYlMRX3e8qcYRXx63u1V-64" value="" style="rounded=0;whiteSpace=wrap;html=1;fontFamily=宋体;fillColor=#f8cecc;strokeColor=#b85450;" vertex="1" parent="1">
          <mxGeometry x="-1570" y="-615" width="800" height="85" as="geometry" />
        </mxCell>
        <mxCell id="qYlMRX3e8qcYRXx63u1V-65" value="Redis" style="rounded=0;whiteSpace=wrap;html=1;fontFamily=Times New Roman;fontSize=17;fillColor=#e3c800;fontColor=#000000;strokeColor=#B09500;" vertex="1" parent="1">
          <mxGeometry x="-977" y="-470" width="87" height="40" as="geometry" />
        </mxCell>
        <mxCell id="qYlMRX3e8qcYRXx63u1V-66" value="PostgreSQL" style="rounded=0;whiteSpace=wrap;html=1;fontFamily=Times New Roman;fontSize=17;fillColor=#e3c800;fontColor=#000000;strokeColor=#B09500;" vertex="1" parent="1">
          <mxGeometry x="-877" y="-470" width="102" height="40" as="geometry" />
        </mxCell>
        <mxCell id="qYlMRX3e8qcYRXx63u1V-67" value="&lt;font face=&quot;宋体&quot;&gt;数据库服务&lt;/font&gt;" style="text;strokeColor=none;fillColor=none;html=1;align=center;verticalAlign=middle;whiteSpace=wrap;rounded=0;fontSize=20;fontFamily=Architects Daughter;fontSource=https%3A%2F%2Ffonts.googleapis.com%2Fcss%3Ffamily%3DArchitects%2BDaughter;" vertex="1" parent="1">
          <mxGeometry x="-941" y="-500" width="117" height="30" as="geometry" />
        </mxCell>
        <mxCell id="qYlMRX3e8qcYRXx63u1V-68" value="&lt;span style=&quot;font-family: &amp;quot;Times New Roman&amp;quot;; font-size: 20px;&quot;&gt;Apache Sedona(Spark)&lt;/span&gt;" style="rounded=0;whiteSpace=wrap;html=1;fontFamily=Architects Daughter;fontSource=https%3A%2F%2Ffonts.googleapis.com%2Fcss%3Ffamily%3DArchitects%2BDaughter;fillColor=#e3c800;fontColor=#000000;strokeColor=#B09500;" vertex="1" parent="1">
          <mxGeometry x="-1530" y="-470" width="425" height="35" as="geometry" />
        </mxCell>
        <mxCell id="qYlMRX3e8qcYRXx63u1V-69" value="&lt;font face=&quot;宋体&quot;&gt;计算服务&lt;/font&gt;" style="text;strokeColor=none;fillColor=none;html=1;align=center;verticalAlign=middle;whiteSpace=wrap;rounded=0;fontSize=20;fontFamily=Architects Daughter;fontSource=https%3A%2F%2Ffonts.googleapis.com%2Fcss%3Ffamily%3DArchitects%2BDaughter;" vertex="1" parent="1">
          <mxGeometry x="-1382" y="-497.5" width="117" height="30" as="geometry" />
        </mxCell>
        <mxCell id="qYlMRX3e8qcYRXx63u1V-72" value="&lt;font style=&quot;font-size: 18px;&quot; face=&quot;Times New Roman&quot;&gt;http&lt;/font&gt;" style="text;strokeColor=none;fillColor=none;html=1;align=center;verticalAlign=middle;whiteSpace=wrap;rounded=0;fontSize=18;fontFamily=Architects Daughter;fontSource=https%3A%2F%2Ffonts.googleapis.com%2Fcss%3Ffamily%3DArchitects%2BDaughter;" vertex="1" parent="1">
          <mxGeometry x="-1479" y="-529" width="50" height="25" as="geometry" />
        </mxCell>
        <mxCell id="qYlMRX3e8qcYRXx63u1V-73" value="" style="edgeStyle=none;orthogonalLoop=1;jettySize=auto;html=1;rounded=0;fontFamily=Architects Daughter;fontSource=https%3A%2F%2Ffonts.googleapis.com%2Fcss%3Ffamily%3DArchitects%2BDaughter;fontSize=16;startSize=14;endArrow=blockThin;endSize=10;sourcePerimeterSpacing=8;targetPerimeterSpacing=8;curved=1;exitX=1;exitY=0.5;exitDx=0;exitDy=0;dashed=1;endFill=1;entryX=0;entryY=0.5;entryDx=0;entryDy=0;" edge="1" parent="1" source="qYlMRX3e8qcYRXx63u1V-62" target="qYlMRX3e8qcYRXx63u1V-63">
          <mxGeometry width="140" relative="1" as="geometry">
            <mxPoint x="-1055" y="-450.34" as="sourcePoint" />
            <mxPoint x="-995" y="-450" as="targetPoint" />
            <Array as="points" />
          </mxGeometry>
        </mxCell>
        <mxCell id="qYlMRX3e8qcYRXx63u1V-83" value="&lt;span style=&quot;font-family: 宋体;&quot;&gt;统一API网关&lt;/span&gt;" style="text;strokeColor=none;fillColor=none;html=1;align=center;verticalAlign=middle;whiteSpace=wrap;rounded=0;fontSize=20;fontFamily=Architects Daughter;fontSource=https%3A%2F%2Ffonts.googleapis.com%2Fcss%3Ffamily%3DArchitects%2BDaughter;" vertex="1" parent="1">
          <mxGeometry x="-1550" y="-584.5" width="130" height="30" as="geometry" />
        </mxCell>
        <mxCell id="qYlMRX3e8qcYRXx63u1V-84" value="用户认证" style="rounded=0;whiteSpace=wrap;html=1;fontFamily=宋体;fontSize=19;fillColor=#e3c800;fontColor=#000000;strokeColor=#B09500;" vertex="1" parent="1">
          <mxGeometry x="-1400" y="-602.5" width="130" height="27.5" as="geometry" />
        </mxCell>
        <mxCell id="qYlMRX3e8qcYRXx63u1V-85" value="权限管理" style="rounded=0;whiteSpace=wrap;html=1;fontFamily=宋体;fontSize=19;fillColor=#e3c800;fontColor=#000000;strokeColor=#B09500;" vertex="1" parent="1">
          <mxGeometry x="-1245" y="-602.5" width="125" height="27.5" as="geometry" />
        </mxCell>
        <mxCell id="qYlMRX3e8qcYRXx63u1V-87" value="日志管理" style="rounded=0;whiteSpace=wrap;html=1;fontFamily=宋体;fontSize=19;fillColor=#e3c800;fontColor=#000000;strokeColor=#B09500;" vertex="1" parent="1">
          <mxGeometry x="-1095" y="-602.5" width="125" height="27.5" as="geometry" />
        </mxCell>
        <mxCell id="qYlMRX3e8qcYRXx63u1V-88" value="参数解析" style="rounded=0;whiteSpace=wrap;html=1;fontFamily=宋体;fontSize=19;fillColor=#e3c800;fontColor=#000000;strokeColor=#B09500;" vertex="1" parent="1">
          <mxGeometry x="-1400" y="-565" width="130" height="27.5" as="geometry" />
        </mxCell>
        <mxCell id="qYlMRX3e8qcYRXx63u1V-89" value="任务提交" style="rounded=0;whiteSpace=wrap;html=1;fontFamily=宋体;fontSize=19;fillColor=#e3c800;fontColor=#000000;strokeColor=#B09500;" vertex="1" parent="1">
          <mxGeometry x="-1245" y="-565" width="125" height="27.5" as="geometry" />
        </mxCell>
        <mxCell id="qYlMRX3e8qcYRXx63u1V-90" value="任务监控" style="rounded=0;whiteSpace=wrap;html=1;fontFamily=宋体;fontSize=19;fillColor=#e3c800;fontColor=#000000;strokeColor=#B09500;" vertex="1" parent="1">
          <mxGeometry x="-1095" y="-565" width="125" height="27.5" as="geometry" />
        </mxCell>
        <mxCell id="qYlMRX3e8qcYRXx63u1V-91" value="数据预览" style="rounded=0;whiteSpace=wrap;html=1;fontFamily=宋体;fontSize=19;fillColor=#e3c800;fontColor=#000000;strokeColor=#B09500;" vertex="1" parent="1">
          <mxGeometry x="-945" y="-602.5" width="125" height="27.5" as="geometry" />
        </mxCell>
        <mxCell id="qYlMRX3e8qcYRXx63u1V-92" value="数据下载" style="rounded=0;whiteSpace=wrap;html=1;fontFamily=宋体;fontSize=19;fillColor=#e3c800;fontColor=#000000;strokeColor=#B09500;" vertex="1" parent="1">
          <mxGeometry x="-945" y="-565" width="125" height="27.5" as="geometry" />
        </mxCell>
        <mxCell id="qYlMRX3e8qcYRXx63u1V-93" value="" style="edgeStyle=none;orthogonalLoop=1;jettySize=auto;html=1;rounded=0;fontFamily=Architects Daughter;fontSource=https%3A%2F%2Ffonts.googleapis.com%2Fcss%3Ffamily%3DArchitects%2BDaughter;fontSize=16;startSize=14;endArrow=blockThin;endSize=8;sourcePerimeterSpacing=8;targetPerimeterSpacing=8;curved=1;exitX=0.18;exitY=1.006;exitDx=0;exitDy=0;exitPerimeter=0;entryX=0.285;entryY=0.003;entryDx=0;entryDy=0;entryPerimeter=0;dashed=1;endFill=1;" edge="1" parent="1" source="qYlMRX3e8qcYRXx63u1V-64" target="qYlMRX3e8qcYRXx63u1V-62">
          <mxGeometry width="140" relative="1" as="geometry">
            <mxPoint x="-1430" y="-510" as="sourcePoint" />
            <mxPoint x="-1290" y="-510" as="targetPoint" />
            <Array as="points" />
          </mxGeometry>
        </mxCell>
        <mxCell id="qYlMRX3e8qcYRXx63u1V-94" value="" style="edgeStyle=none;orthogonalLoop=1;jettySize=auto;html=1;rounded=0;fontFamily=Architects Daughter;fontSource=https%3A%2F%2Ffonts.googleapis.com%2Fcss%3Ffamily%3DArchitects%2BDaughter;fontSize=16;startSize=14;endArrow=blockThin;endSize=8;sourcePerimeterSpacing=8;targetPerimeterSpacing=8;curved=1;exitX=0.307;exitY=-0.004;exitDx=0;exitDy=0;exitPerimeter=0;dashed=1;endFill=1;entryX=0.194;entryY=1.008;entryDx=0;entryDy=0;entryPerimeter=0;" edge="1" parent="1" source="qYlMRX3e8qcYRXx63u1V-62" target="qYlMRX3e8qcYRXx63u1V-64">
          <mxGeometry width="140" relative="1" as="geometry">
            <mxPoint x="-1416" y="-519" as="sourcePoint" />
            <mxPoint x="-1416" y="-487" as="targetPoint" />
            <Array as="points" />
          </mxGeometry>
        </mxCell>
        <mxCell id="qYlMRX3e8qcYRXx63u1V-95" value="" style="edgeStyle=none;orthogonalLoop=1;jettySize=auto;html=1;rounded=0;fontFamily=Architects Daughter;fontSource=https%3A%2F%2Ffonts.googleapis.com%2Fcss%3Ffamily%3DArchitects%2BDaughter;fontSize=16;startSize=14;endArrow=blockThin;endSize=8;sourcePerimeterSpacing=8;targetPerimeterSpacing=8;curved=1;exitX=0.18;exitY=1.006;exitDx=0;exitDy=0;exitPerimeter=0;dashed=1;endFill=1;" edge="1" parent="1">
          <mxGeometry width="140" relative="1" as="geometry">
            <mxPoint x="-888.24" y="-530" as="sourcePoint" />
            <mxPoint x="-888" y="-500" as="targetPoint" />
            <Array as="points" />
          </mxGeometry>
        </mxCell>
        <mxCell id="qYlMRX3e8qcYRXx63u1V-96" value="" style="edgeStyle=none;orthogonalLoop=1;jettySize=auto;html=1;rounded=0;fontFamily=Architects Daughter;fontSource=https%3A%2F%2Ffonts.googleapis.com%2Fcss%3Ffamily%3DArchitects%2BDaughter;fontSize=16;startSize=14;endArrow=blockThin;endSize=8;sourcePerimeterSpacing=8;targetPerimeterSpacing=8;curved=1;dashed=1;endFill=1;" edge="1" parent="1">
          <mxGeometry width="140" relative="1" as="geometry">
            <mxPoint x="-877" y="-500" as="sourcePoint" />
            <mxPoint x="-877" y="-530" as="targetPoint" />
            <Array as="points" />
          </mxGeometry>
        </mxCell>
        <mxCell id="qYlMRX3e8qcYRXx63u1V-97" value="&lt;b&gt;&lt;font style=&quot;font-size: 22px;&quot; face=&quot;宋体&quot;&gt;服务层&lt;/font&gt;&lt;/b&gt;" style="text;strokeColor=none;fillColor=none;html=1;align=center;verticalAlign=middle;whiteSpace=wrap;rounded=0;fontSize=20;fontFamily=Architects Daughter;fontSource=https%3A%2F%2Ffonts.googleapis.com%2Fcss%3Ffamily%3DArchitects%2BDaughter;" vertex="1" parent="1">
          <mxGeometry x="-1700" y="-529" width="70" height="30" as="geometry" />
        </mxCell>
        <mxCell id="qYlMRX3e8qcYRXx63u1V-103" value="" style="shape=singleArrow;whiteSpace=wrap;html=1;arrowWidth=0.4;arrowSize=0.4;fontFamily=Architects Daughter;fontSource=https%3A%2F%2Ffonts.googleapis.com%2Fcss%3Ffamily%3DArchitects%2BDaughter;rotation=-90;" vertex="1" parent="1">
          <mxGeometry x="-1333.5" y="-430" width="20" height="60" as="geometry" />
        </mxCell>
        <mxCell id="qYlMRX3e8qcYRXx63u1V-104" value="" style="shape=singleArrow;whiteSpace=wrap;html=1;arrowWidth=0.4;arrowSize=0.4;fontFamily=Architects Daughter;fontSource=https%3A%2F%2Ffonts.googleapis.com%2Fcss%3Ffamily%3DArchitects%2BDaughter;rotation=-90;" vertex="1" parent="1">
          <mxGeometry x="-1042.5" y="-427.5" width="20" height="60" as="geometry" />
        </mxCell>
        <mxCell id="qYlMRX3e8qcYRXx63u1V-105" value="" style="shape=singleArrow;whiteSpace=wrap;html=1;arrowWidth=0.4;arrowSize=0.4;fontFamily=Architects Daughter;fontSource=https%3A%2F%2Ffonts.googleapis.com%2Fcss%3Ffamily%3DArchitects%2BDaughter;rotation=-90;" vertex="1" parent="1">
          <mxGeometry x="-1333.5" y="-680" width="20" height="60" as="geometry" />
        </mxCell>
        <mxCell id="qYlMRX3e8qcYRXx63u1V-106" value="" style="shape=singleArrow;whiteSpace=wrap;html=1;arrowWidth=0.4;arrowSize=0.4;fontFamily=Architects Daughter;fontSource=https%3A%2F%2Ffonts.googleapis.com%2Fcss%3Ffamily%3DArchitects%2BDaughter;rotation=-90;direction=west;" vertex="1" parent="1">
          <mxGeometry x="-1060" y="-680" width="20" height="60" as="geometry" />
        </mxCell>
      </root>
    </mxGraphModel>
  </diagram>
</mxfile>
